<?xml version="1.0" encoding="UTF-8"?>
<svg version="1.1" xmlns="http://www.w3.org/2000/svg" width="400" height="400">
<path d="M0 0 C132 0 264 0 400 0 C400 132 400 264 400 400 C268 400 136 400 0 400 C0 268 0 136 0 0 Z " fill="#D5F7F8" transform="translate(0,0)"/>
<path d="M0 0 C6.39870784 6.39870784 9.68476073 13.45948795 10.125 22.5625 C9.90417458 31.12273246 6.42216772 37.90193336 0.609375 44.0625 C-6.43018789 50.45134699 -14.6420042 52.29425163 -23.9296875 52.125 C-31.61051664 51.25751812 -37.60036571 47.24543823 -42.77734375 41.65234375 C-45.81360542 37.73017019 -48.25 33.77400833 -48.25 28.75 C-59.8 28.75 -71.35 28.75 -83.25 28.75 C-85.76273588 51.59006523 -85.76273588 51.59006523 -76.8984375 71.60546875 C-74.75928474 73.97594829 -72.51975001 76.19529284 -70.1875 78.375 C-69.62547882 78.90664764 -69.06345764 79.43829529 -68.48440552 79.98605347 C-62.11392181 85.87132482 -58.29902527 88.61887184 -49.25 89.75 C-49.25 82.16 -49.25 74.57 -49.25 66.75 C-29.78 66.75 -10.31 66.75 9.75 66.75 C9.75 86.22 9.75 105.69 9.75 125.75 C-9.72 125.75 -29.19 125.75 -49.25 125.75 C-49.25 118.16 -49.25 110.57 -49.25 102.75 C-51.89 102.75 -54.53 102.75 -57.25 102.75 C-57.48267578 103.30792236 -57.71535156 103.86584473 -57.95507812 104.44067383 C-59.58425524 107.34610111 -61.6074317 109.34922731 -63.96875 111.69921875 C-64.90074219 112.62927734 -65.83273438 113.55933594 -66.79296875 114.51757812 C-67.27813965 114.99654541 -67.76331055 115.4755127 -68.26318359 115.96899414 C-69.75028955 117.43778598 -71.22917958 118.91448104 -72.70703125 120.39257812 C-79.96930804 127.60965402 -79.96930804 127.60965402 -82.25 128.75 C-82.58 140.96 -82.91 153.17 -83.25 165.75 C-72.03 165.75 -60.81 165.75 -49.25 165.75 C-49.25 159.15 -49.25 152.55 -49.25 145.75 C-29.78 145.75 -10.31 145.75 9.75 145.75 C9.75 165.22 9.75 184.69 9.75 204.75 C-9.72 204.75 -29.19 204.75 -49.25 204.75 C-49.25 196.17 -49.25 187.59 -49.25 178.75 C-64.76 178.75 -80.27 178.75 -96.25 178.75 C-95.899375 171.015625 -95.54875 163.28125 -95.1875 155.3125 C-95.14953241 133.24737459 -95.14953241 133.24737459 -105.91680908 114.72479248 C-116.63921047 104.31324525 -127.56827994 101.6876776 -142.3125 101.6875 C-148.00082692 101.79481535 -153.57643182 102.23087005 -159.25 102.75 C-159.25 110.34 -159.25 117.93 -159.25 125.75 C-178.72 125.75 -198.19 125.75 -218.25 125.75 C-218.25 106.28 -218.25 86.81 -218.25 66.75 C-198.78 66.75 -179.31 66.75 -159.25 66.75 C-159.25 74.34 -159.25 81.93 -159.25 89.75 C-133.62543311 92.20102854 -133.62543311 92.20102854 -110.75146484 82.16943359 C-99.75937329 72.4616833 -96.33150904 62.99093603 -95.30366516 48.46618652 C-94.83850987 37.51884655 -95.73010616 26.72893472 -96.25 15.75 C-80.41 15.75 -64.57 15.75 -48.25 15.75 C-47.26 12.78 -46.27 9.81 -45.25 6.75 C-40.85461911 0.79181702 -35.94796006 -4.10716532 -28.4921875 -5.9296875 C-17.37234425 -7.51823654 -9.16932311 -6.34799292 0 0 Z " fill="#2E0267" transform="translate(312.25,88.25)"/>
<path d="M0 0 C0.33 0 0.66 0 1 0 C1 19.47 1 38.94 1 59 C20.47 59 39.94 59 60 59 C60 51.41 60 43.82 60 36 C93.49708311 31.73540944 93.49708311 31.73540944 107.11019897 41.34747314 C116.11859506 48.4614824 122.45097215 56.55149148 124.06884766 68.13867188 C125.4306138 82.89878027 124.03429046 97.12212947 123 112 C138.51 112 154.02 112 170 112 C170 112.33 170 112.66 170 113 C169.26362305 113.00410889 168.52724609 113.00821777 167.76855469 113.01245117 C164.42822305 113.04536992 161.08971949 113.11601314 157.75 113.1875 C156.01169922 113.19620117 156.01169922 113.19620117 154.23828125 113.20507812 C147.91004279 113.12082447 147.91004279 113.12082447 142.703125 116.11328125 C142.14109375 117.06589844 141.5790625 118.01851563 141 119 C139.81067337 120.10957383 138.58450809 121.18019599 137.3359375 122.22265625 C131.6106551 127.11847609 126.43657363 132.55170083 121.18359375 137.94335938 C120.41402344 138.72388672 119.64445312 139.50441406 118.8515625 140.30859375 C118.15885254 141.01814209 117.46614258 141.72769043 116.75244141 142.45874023 C115 144 115 144 113 144 C113 144.66 113 145.32 113 146 C110.69921875 147.7265625 110.69921875 147.7265625 107.6875 149.625 C106.70136719 150.25664062 105.71523437 150.88828125 104.69921875 151.5390625 C102 153 102 153 99 153 C99 153.66 99 154.32 99 155 C82.35714793 159.64451686 68.46127523 159.07255825 53 151.0625 C49.0344985 148.77582395 45.87512754 146.56912384 43 143 C43 142.34 43 141.68 43 141 C42.34 141 41.68 141 41 141 C36.23255814 136.69767442 36.23255814 136.69767442 35 133 C34.34 133 33.68 133 33 133 C28.23255814 128.69767442 28.23255814 128.69767442 27 125 C26.34 125 25.68 125 25 125 C20.23255814 120.69767442 20.23255814 120.69767442 19 117 C18.34 117 17.68 117 17 117 C6.58717794 106.61016431 2.82504047 94.50768987 2.75 80.25 C2.729375 79.28578125 2.70875 78.3215625 2.6875 77.328125 C2.65397114 71.15881437 3.46343246 66.63385001 6 61 C4.02 60.67 2.04 60.34 0 60 C0 40.2 0 20.4 0 0 Z " fill="#72BFFD" transform="translate(93,155)"/>
<path d="M0 0 C19.47 0 38.94 0 59 0 C59 19.47 59 38.94 59 59 C39.53 59 20.06 59 0 59 C0 50.42 0 41.84 0 33 C-15.51 33 -31.02 33 -47 33 C-47 28.71 -47 24.42 -47 20 C-31.49 20 -15.98 20 0 20 C0 13.4 0 6.8 0 0 Z " fill="#1B0151" transform="translate(263,234)"/>
<path d="M0 0 C19.47 0 38.94 0 59 0 C59 19.47 59 38.94 59 59 C39.53 59 20.06 59 0 59 C-0.495 47.615 -0.495 47.615 -1 36 C-2.98 35.67 -4.96 35.34 -7 35 C-4 33 -4 33 -2 33 C-1.67 32.34 -1.34 31.68 -1 31 C-2.32 31.33 -3.64 31.66 -5 32 C-5.33 31.34 -5.66 30.68 -6 30 C-4.02 29.67 -2.04 29.34 0 29 C-0.33 28.34 -0.66 27.68 -1 27 C-3.31 27 -5.62 27 -8 27 C-8.33 27.66 -8.66 28.32 -9 29 C-16.75 28.25 -16.75 28.25 -19 26 C-19 24.68 -19 23.36 -19 22 C-16 22 -16 22 -11 24 C-7.37 24 -3.74 24 0 24 C0 16.08 0 8.16 0 0 Z " fill="#2E0167" transform="translate(263,155)"/>
<path d="M0 0 C1.77706209 2.66559313 2.87548273 5.0280615 4 8 C4.66 7.67 5.32 7.34 6 7 C7.66619446 6.9603287 9.33391013 6.95615553 11 7 C11 8.32 11 9.64 11 11 C12.75781369 13.31153499 12.75781369 13.31153499 15.15625 15.546875 C16.01347656 16.39121094 16.87070313 17.23554688 17.75390625 18.10546875 C18.66011719 18.97816406 19.56632812 19.85085937 20.5 20.75 C21.40621094 21.63816406 22.31242187 22.52632812 23.24609375 23.44140625 C25.48871616 25.63681556 27.74012768 27.82237387 30 30 C27.73029011 34.9402256 23.98745709 37.92199741 20.01953125 41.5625 C17.70791277 43.77226121 17.70791277 43.77226121 18.19921875 46.3125 C18.46347656 46.869375 18.72773438 47.42625 19 48 C19.66 47.01 20.32 46.02 21 45 C21.8971875 45.2475 21.8971875 45.2475 22.8125 45.5 C25.11344336 46.1114124 25.11344336 46.1114124 28 46 C28.99 46 29.98 46 31 46 C31.66 45.175 32.32 44.35 33 43.5 C33.66 42.675 34.32 41.85 35 41 C35.99 41 36.98 41 38 41 C37.505 39.02 37.505 39.02 37 37 C37.99 36.67 38.98 36.34 40 36 C40 36.66 40 37.32 40 38 C40.66 38.33 41.32 38.66 42 39 C38.76425966 42.26043195 35.52526932 45.51758669 32.28320312 48.77172852 C31.18041139 49.8795536 30.07851824 50.98827393 28.97753906 52.09790039 C27.39622779 53.6913208 25.81172876 55.28150948 24.2265625 56.87109375 C23.73378815 57.36902939 23.24101379 57.86696503 22.73330688 58.37998962 C19.22774341 61.88612829 19.22774341 61.88612829 17 63 C16.67 75.21 16.34 87.42 16 100 C11.71 100 7.42 100 3 100 C3.10062744 99.01008057 3.20125488 98.02016113 3.30493164 97.00024414 C5.52893909 75.89433715 5.52893909 75.89433715 -1.96043396 56.89393616 C-8.17701324 49.72668972 -15.51272263 43.78048447 -23 38 C-23.66 37.34 -24.32 36.68 -25 36 C-24.34 35.67 -23.68 35.34 -23 35 C-23.99 34.67 -24.98 34.34 -26 34 C-26 33.34 -26 32.68 -26 32 C-25.01 31.67 -24.02 31.34 -23 31 C-23.825 30.54625 -24.65 30.0925 -25.5 29.625 C-26.325 29.08875 -27.15 28.5525 -28 28 C-28 27.34 -28 26.68 -28 26 C-38.56 25.67 -49.12 25.34 -60 25 C-60 24.67 -60 24.34 -60 24 C-58.99960693 24.09015381 -57.99921387 24.18030762 -56.96850586 24.27319336 C-36.06473325 26.42001447 -36.06473325 26.42001447 -17.15855408 19.30418396 C-10.6001538 13.670984 -5.07358135 6.97526008 0 0 Z " fill="#2F0369" transform="translate(213,154)"/>
<path d="M0 0 C8.33733417 2.20012985 15.01024341 5.59769181 19.875 12.9375 C24.04576038 20.36622809 25.44710027 28.27225582 23.34765625 36.58203125 C20.68063369 44.0336694 16.2914984 50.25046999 9.4375 54.375 C1.35500831 58.19581425 -7.10271783 59.86315233 -15.84375 57.1015625 C-17.963432 56.15575502 -19.99197777 55.1622661 -22 54 C-22 52.02 -22 50.04 -22 48 C-19.03 47.01 -16.06 46.02 -13 45 C-13 44.34 -13 43.68 -13 43 C-13.60328125 42.74476562 -14.2065625 42.48953125 -14.828125 42.2265625 C-18.5476195 40.12598467 -20.29021943 36.83180072 -22 33 C-22.94386589 28.74856986 -22.31247297 25.09421034 -20.3125 21.25 C-17.67193145 17.53893069 -15.0745454 15.0372727 -11 13 C-9.12943209 12.7724985 -7.25314042 12.59037189 -5.375 12.4375 C-4.37210937 12.35371094 -3.36921875 12.26992187 -2.3359375 12.18359375 C-1.56507813 12.12300781 -0.79421875 12.06242187 0 12 C0 11.67 0 11.34 0 11 C1.98 11 3.96 11 6 11 C6 10.34 6 9.68 6 9 C5.34 8.67 4.68 8.34 4 8 C4.66 7.67 5.32 7.34 6 7 C6 6.34 6 5.68 6 5 C3.69 4.67 1.38 4.34 -1 4 C-0.67 2.68 -0.34 1.36 0 0 Z " fill="#300668" transform="translate(298,82)"/>
<path d="M0 0 C10.89 0 21.78 0 33 0 C33 10.89 33 21.78 33 33 C22.11 33 11.22 33 0 33 C0 22.11 0 11.22 0 0 Z " fill="#D2F2F5" transform="translate(276,247)"/>
<path d="M0 0 C10.89 0 21.78 0 33 0 C33 10.89 33 21.78 33 33 C22.11 33 11.22 33 0 33 C0 22.11 0 11.22 0 0 Z " fill="#D6F7F9" transform="translate(276,168)"/>
<path d="M0 0 C10.89 0 21.78 0 33 0 C33 10.89 33 21.78 33 33 C22.11 33 11.22 33 0 33 C0 22.11 0 11.22 0 0 Z " fill="#D6F7F9" transform="translate(107,168)"/>
<path d="M0 0 C5.06623768 4.23816537 9.80038069 8.67408963 14.4375 13.375 C15.07365234 14.01566406 15.70980469 14.65632812 16.36523438 15.31640625 C17.91250332 16.87530879 19.45736492 18.43651416 21 20 C18.69909822 25.24208645 14.60507793 28.80267066 10.625 32.8125 C9.85671875 33.61365234 9.0884375 34.41480469 8.296875 35.24023438 C7.55179688 35.99240234 6.80671875 36.74457031 6.0390625 37.51953125 C5.36053223 38.21151611 4.68200195 38.90350098 3.98291016 39.61645508 C2 41 2 41 0.01806641 40.96972656 C-2.62621113 39.69909139 -4.27535972 38.06159686 -6.328125 35.96484375 C-7.12734375 35.15595703 -7.9265625 34.34707031 -8.75 33.51367188 C-9.575 32.66353516 -10.4 31.81339844 -11.25 30.9375 C-12.09046875 30.08349609 -12.9309375 29.22949219 -13.796875 28.34960938 C-15.87147597 26.23964588 -17.93875832 24.12300292 -20 22 C-18.51346494 18.53370165 -16.54277649 16.30977964 -13.8671875 13.671875 C-12.65869141 12.47304687 -12.65869141 12.47304687 -11.42578125 11.25 C-10.58402344 10.425 -9.74226562 9.6 -8.875 8.75 C-8.02550781 7.90953125 -7.17601562 7.0690625 -6.30078125 6.203125 C-4.20495077 4.13084317 -2.10459287 2.06337607 0 0 Z " fill="#D4F6F8" transform="translate(222,164)"/>
<path d="M0 0 C4.45146251 2.18526342 7.18885145 4.9394521 10 9 C11.70108067 14.10324201 11.56521247 18.31873434 9.3125 23.1875 C6.83698495 27.71716583 3.93990878 30.35336374 -1 32 C-6.69734689 32.56430864 -11.12785716 32.28586378 -16 29 C-18.25 26.5625 -18.25 26.5625 -20 24 C-20.4125 23.401875 -20.825 22.80375 -21.25 22.1875 C-22.64904973 18.10693829 -22.78296909 14.09497136 -21.27734375 10.06640625 C-16.35207544 0.79414 -9.79786611 -0.99780249 0 0 Z " fill="#D5F5F7" transform="translate(298,95)"/>
<path d="M0 0 C3.60047044 3.13217898 5.06626226 6.04031763 6.6875 10.5 C7.31205078 12.18609375 7.31205078 12.18609375 7.94921875 13.90625 C11.70252205 24.9568679 10.6026044 36.04207828 7 47 C1.06 47 -4.88 47 -11 47 C-11.23100436 41.8896702 -11.42936393 36.79769438 -11.54931641 31.6862793 C-11.59932542 29.95257983 -11.66736402 28.21929622 -11.75439453 26.48706055 C-12.46023152 12.06722597 -12.46023152 12.06722597 -8.76464844 6.83544922 C-6.28018549 4.60191083 -3.83863233 2.75125548 -1 1 C-0.67 0.67 -0.34 0.34 0 0 Z " fill="#74C0FD" transform="translate(240,207)"/>
<path d="M0 0 C0.7513623 -0.00515625 1.50272461 -0.0103125 2.27685547 -0.015625 C9.7217709 0.07562369 16.11294655 1.72552461 22.875 4.9375 C23.82375 5.38351563 24.7725 5.82953125 25.75 6.2890625 C26.45125 6.62679687 27.1525 6.96453125 27.875 7.3125 C25.44487084 12.48088475 22.91730188 16.40113054 17.875 19.3125 C11.67505069 20.64650868 5.16530667 20.0640648 -1.125 19.8125 C-2.87101218 19.77232455 -4.61711318 19.7358309 -6.36328125 19.703125 C-10.62118177 19.6222532 -14.86665284 19.4658005 -19.125 19.3125 C-19.125 14.0325 -19.125 8.7525 -19.125 3.3125 C-12.6303279 0.79843338 -6.89730588 0.01134659 0 0 Z " fill="#73C0FD" transform="translate(172.125,158.6875)"/>
<path d="M0 0 C10.89 0 21.78 0 33 0 C33 10.89 33 21.78 33 33 C23.1 33 13.2 33 3 33 C6.74652452 28.62905472 10.29000726 24.59985434 14.36328125 20.609375 C15.34192255 19.64335647 16.32043462 18.677207 17.29882812 17.7109375 C18.8156101 16.21911804 20.33398335 14.72898257 21.85473633 13.24121094 C23.34111349 11.78495503 24.82127174 10.32260295 26.30078125 8.859375 C27.61816284 7.56725098 27.61816284 7.56725098 28.9621582 6.24902344 C31.19393403 4.0893039 31.19393403 4.0893039 32 1 C21.44 1 10.88 1 0 1 C0 0.67 0 0.34 0 0 Z " fill="#72B8F4" transform="translate(107,168)"/>
<path d="M0 0 C4.41700091 2.1415762 6.99499339 5.12440554 10.09375 8.80078125 C13.204692 12.38983934 16.60848917 15.67865836 20 19 C20.66 19.66 21.32 20.32 22 21 C20.76600937 22.36877116 19.51219377 23.71969166 18.25 25.0625 C17.55390625 25.81660156 16.8578125 26.57070312 16.140625 27.34765625 C14 29 14 29 12.13671875 28.85546875 C9.32416665 27.72941955 7.78939442 26.12773859 5.671875 23.96484375 C4.87265625 23.15595703 4.0734375 22.34707031 3.25 21.51367188 C2.425 20.66353516 1.6 19.81339844 0.75 18.9375 C-0.09046875 18.08349609 -0.9309375 17.22949219 -1.796875 16.34960938 C-3.87147597 14.23964588 -5.93875832 12.12300292 -8 10 C-5.95933017 5.73384496 -3.41446998 3.26601476 0 0 Z " fill="#72BCF9" transform="translate(210,176)"/>
<path d="M0 0 C10.89 0 21.78 0 33 0 C33 10.89 33 21.78 33 33 C32.01 32.67 31.02 32.34 30 32 C29.97101903 27.89584811 29.9532078 23.79172247 29.9375 19.6875 C29.92912109 18.52025391 29.92074219 17.35300781 29.91210938 16.15039062 C29.90727539 14.47299805 29.90727539 14.47299805 29.90234375 12.76171875 C29.89448853 11.2142395 29.89448853 11.2142395 29.88647461 9.63549805 C30 7 30 7 31 4 C30.19780029 3.98018066 29.39560059 3.96036133 28.5690918 3.93994141 C24.94155823 3.84480505 21.31460955 3.7350792 17.6875 3.625 C16.42486328 3.5940625 15.16222656 3.563125 13.86132812 3.53125 C12.65283203 3.49257812 11.44433594 3.45390625 10.19921875 3.4140625 C8.52605591 3.36693115 8.52605591 3.36693115 6.8190918 3.31884766 C4 3 4 3 1 1 C1 3.31 1 5.62 1 8 C1.66 8 2.32 8 3 8 C3 16.25 3 24.5 3 33 C2.01 33 1.02 33 0 33 C0 22.11 0 11.22 0 0 Z " fill="#CCE6ED" transform="translate(276,168)"/>
<path d="M0 0 C19.47 0 38.94 0 59 0 C59 17.49 59 34.98 59 53 C58.67 53 58.34 53 58 53 C58 36.5 58 20 58 3 C39.52 3 21.04 3 2 3 C2 2.34 2 1.68 2 1 C1.34 0.67 0.68 0.34 0 0 Z " fill="#371072" transform="translate(263,155)"/>
<path d="M0 0 C19.47 0 38.94 0 59 0 C58.67 0.99 58.34 1.98 58 3 C39.19 3 20.38 3 1 3 C0.67 2.01 0.34 1.02 0 0 Z " fill="#3C1574" transform="translate(94,155)"/>
<path d="M0 0 C0.33 0.66 0.66 1.32 1 2 C1.66 2.33 2.32 2.66 3 3 C-3.6 9.6 -10.2 16.2 -17 23 C-18.33333333 20.33333333 -19.66666667 17.66666667 -21 15 C-21.66 15 -22.32 15 -23 15 C-23 15.66 -23 16.32 -23 17 C-23.66 16.67 -24.32 16.34 -25 16 C-25.99 16.33 -26.98 16.66 -28 17 C-28.66 16.34 -29.32 15.68 -30 15 C-27.36 13.02 -24.72 11.04 -22 9 C-21.01 10.485 -21.01 10.485 -20 12 C-19.34 11.01 -18.68 10.02 -18 9 C-17.401875 9.165 -16.80375 9.33 -16.1875 9.5 C-13.88655664 10.1114124 -13.88655664 10.1114124 -11 10 C-10.01 10 -9.02 10 -8 10 C-7.34 9.175 -6.68 8.35 -6 7.5 C-5.34 6.675 -4.68 5.85 -4 5 C-3.01 5 -2.02 5 -1 5 C-1.33 3.68 -1.66 2.36 -2 1 C-1.34 0.67 -0.68 0.34 0 0 Z " fill="#30056A" transform="translate(252,190)"/>
<path d="M0 0 C0.99 0.66 1.98 1.32 3 2 C2.835 2.5775 2.67 3.155 2.5 3.75 C1.85537969 6.26664369 1.85537969 6.26664369 2 10 C2.66 10 3.32 10 4 10 C4 9.34 4 8.68 4 8 C4.66 8 5.32 8 6 8 C6.33 6.68 6.66 5.36 7 4 C7.99 4 8.98 4 10 4 C10 4.66 10 5.32 10 6 C11.32 6 12.64 6 14 6 C14 6.66 14 7.32 14 8 C15.98 8 17.96 8 20 8 C20 8.33 20 8.66 20 9 C19.41992188 9.02578125 18.83984375 9.0515625 18.2421875 9.078125 C12.72857658 9.47845319 9.46859062 10.51231951 5 14 C4.01 14.495 4.01 14.495 3 15 C3 14.34 3 13.68 3 13 C2.0925 12.773125 1.185 12.54625 0.25 12.3125 C-3.44888324 10.81872023 -4.77905658 9.24599423 -7 6 C-4.69 4.02 -2.38 2.04 0 0 Z " fill="#360E6E" transform="translate(276,86)"/>
<path d="M0 0 C10.89 0 21.78 0 33 0 C33 0.33 33 0.66 33 1 C22.44 1 11.88 1 1 1 C1 3.31 1 5.62 1 8 C1.66 8 2.32 8 3 8 C3 16.25 3 24.5 3 33 C2.01 33 1.02 33 0 33 C0 22.11 0 11.22 0 0 Z " fill="#B2C2DB" transform="translate(276,168)"/>
<path d="M0 0 C12.21 0 24.42 0 37 0 C37 0.33 37 0.66 37 1 C25.78 1 14.56 1 3 1 C3.36839926 6.87915429 3.36839926 6.87915429 3.74829102 12.75756836 C3.79139404 13.48596924 3.83449707 14.21437012 3.87890625 14.96484375 C3.94960327 16.08814087 3.94960327 16.08814087 4.02172852 17.23413086 C4 19 4 19 3 20 C2.95936168 21.66617115 2.957279 23.33388095 3 25 C-0.125 18.75 -0.125 18.75 -0.09765625 14.6484375 C-0.09515869 13.88192871 -0.09266113 13.11541992 -0.09008789 12.32568359 C-0.07643188 10.86509521 -0.07643188 10.86509521 -0.0625 9.375 C-0.041875 6.28125 -0.02125 3.1875 0 0 Z " fill="#6BADEF" transform="translate(153,191)"/>
<path d="M0 0 C1.1055189 0.93590504 2.20935453 1.87379858 3.3125 2.8125 C3.92738281 3.33457031 4.54226562 3.85664063 5.17578125 4.39453125 C6.85424679 5.87172469 8.43882034 7.40039131 10 9 C8.52278578 12.45201639 6.56205999 14.64961936 3.875 17.25 C3.15054688 17.95640625 2.42609375 18.6628125 1.6796875 19.390625 C1.12539062 19.92171875 0.57109375 20.4528125 0 21 C-1.125 17.25 -1.125 17.25 0 15 C0.66 15.33 1.32 15.66 2 16 C1.34 14.35 0.68 12.7 0 11 C1.98 11.495 1.98 11.495 4 12 C4 11.01 4 10.02 4 9 C3.154375 8.195625 2.30875 7.39125 1.4375 6.5625 C0.633125 5.716875 -0.17125 4.87125 -1 4 C-0.65234375 1.83984375 -0.65234375 1.83984375 0 0 Z " fill="#D1EBF2" transform="translate(233,175)"/>
<path d="M0 0 C11.88524011 9.96716102 11.88524011 9.96716102 12.3125 13.8125 C12.1578125 14.8953125 12.1578125 14.8953125 12 16 C10.68 16.33 9.36 16.66 8 17 C6.68 14.03 5.36 11.06 4 8 C2.68 8.33 1.36 8.66 0 9 C0 6 0 3 0 0 Z " fill="#73B8F8" transform="translate(204,206)"/>
<path d="M0 0 C10.89 0 21.78 0 33 0 C33 0.66 33 1.32 33 2 C31.76697144 2.03758423 31.76697144 2.03758423 30.5090332 2.07592773 C26.77670626 2.19212655 23.04461683 2.31474505 19.3125 2.4375 C18.01892578 2.47681641 16.72535156 2.51613281 15.39257812 2.55664062 C14.14541016 2.59853516 12.89824219 2.64042969 11.61328125 2.68359375 C9.89298706 2.73858032 9.89298706 2.73858032 8.13793945 2.79467773 C5.33006722 2.97840298 2.73774186 3.3699382 0 4 C0 2.68 0 1.36 0 0 Z " fill="#381879" transform="translate(107,201)"/>
<path d="M0 0 C3.8623485 1.55025456 5.98825244 4.00610739 8.75 7.0625 C12.96464009 11.46669123 12.96464009 11.46669123 18.625 13.125 C19.73875 13.08375 20.8525 13.0425 22 13 C22 13.33 22 13.66 22 14 C18.37 14 14.74 14 11 14 C10.67 14.66 10.34 15.32 10 16 C9.67 15.34 9.34 14.68 9 14 C8.01 13.34 7.02 12.68 6 12 C6.66 12 7.32 12 8 12 C7.505 11.21625 7.01 10.4325 6.5 9.625 C5 7 5 7 5 5 C4.34 5 3.68 5 3 5 C3 4.34 3 3.68 3 3 C2.01 3 1.02 3 0 3 C0 2.01 0 1.02 0 0 Z " fill="#33136C" transform="translate(241,165)"/>
<path d="M0 0 C2.64 0 5.28 0 8 0 C8 8.25 8 16.5 8 25 C7.01 24.67 6.02 24.34 5 24 C5.66 16.41 6.32 8.82 7 1 C6.34 1 5.68 1 5 1 C5 6.28 5 11.56 5 17 C4.67 17 4.34 17 4 17 C4 11.72 4 6.44 4 1 C2.68 0.67 1.36 0.34 0 0 Z " fill="#CBEEEE" transform="translate(255,191)"/>
<path d="M0 0 C0.33 0.66 0.66 1.32 1 2 C1.66 2.33 2.32 2.66 3 3 C-1.29 7.29 -5.58 11.58 -10 16 C-10.33 15.01 -10.66 14.02 -11 13 C-9.671875 10.95703125 -9.671875 10.95703125 -7.75 8.8125 C-7.12609375 8.09707031 -6.5021875 7.38164062 -5.859375 6.64453125 C-4 5 -4 5 -1 5 C-1.33 3.68 -1.66 2.36 -2 1 C-1.34 0.67 -0.68 0.34 0 0 Z " fill="#3E1E76" transform="translate(252,190)"/>
<path d="M0 0 C1.32 0 2.64 0 4 0 C5.03729533 1.64371414 6.0259872 3.31801402 7 5 C9.44873292 7.71878693 12.06925236 10.25781393 14.6875 12.8125 C15.7403418 13.85180664 15.7403418 13.85180664 16.81445312 14.91210938 C18.53851041 16.61271009 20.26707278 18.30844661 22 20 C21.67 20.99 21.34 21.98 21 23 C20.65710938 22.58492187 20.31421875 22.16984375 19.9609375 21.7421875 C15.14730843 16.07490992 9.92878431 10.86432535 4.62451172 5.66162109 C4.02783691 5.0733252 3.43116211 4.4850293 2.81640625 3.87890625 C2.27443604 3.3485376 1.73246582 2.81816895 1.17407227 2.27172852 C0 1 0 1 0 0 Z " fill="#270B5F" transform="translate(222,163)"/>
<path d="M0 0 C1.32 0.66 2.64 1.32 4 2 C1.03 4.97 -1.94 7.94 -5 11 C-6 7 -6 7 -5 5 C-4.34 5.33 -3.68 5.66 -3 6 C-3.66 4.35 -4.32 2.7 -5 1 C-3.02 1.495 -3.02 1.495 -1 2 C-0.67 1.34 -0.34 0.68 0 0 Z " fill="#C8DBEB" transform="translate(238,185)"/>
<path d="M0 0 C0.99 0.33 1.98 0.66 3 1 C3.36923077 6.53846154 3.36923077 6.53846154 1.5 8.875 C0.7575 9.431875 0.7575 9.431875 0 10 C-0.99 9.01 -1.98 8.02 -3 7 C-1.125 1.125 -1.125 1.125 0 0 Z " fill="#330B6B" transform="translate(268,94)"/>
<path d="M0 0 C0.66 0.66 1.32 1.32 2 2 C0.625 3.5 0.625 3.5 -1 5 C-1.66 5 -2.32 5 -3 5 C-3 6.65 -3 8.3 -3 10 C-4.65 10.33 -6.3 10.66 -8 11 C-8.33 12.32 -8.66 13.64 -9 15 C-9.66 13.68 -10.32 12.36 -11 11 C-7.37 7.37 -3.74 3.74 0 0 Z " fill="#CCE1F2" transform="translate(222,164)"/>
<path d="M0 0 C4 4.625 4 4.625 4 8 C3.67 8.66 3.34 9.32 3 10 C0.525 9.01 0.525 9.01 -2 8 C-2 2 -2 2 0 0 Z " fill="#330B6B" transform="translate(277,117)"/>
<path d="M0 0 C1.17539996 0.92652701 2.34010577 1.86663387 3.5 2.8125 C4.1496875 3.33457031 4.799375 3.85664063 5.46875 4.39453125 C7 6 7 6 7 9 C6.01 8.67 5.02 8.34 4 8 C1.85744207 8.38932856 1.85744207 8.38932856 0 9 C0 6 0 3 0 0 Z " fill="#6CAEF0" transform="translate(204,206)"/>
<path d="M0 0 C1.17539996 0.92652701 2.34010577 1.86663387 3.5 2.8125 C4.1496875 3.33457031 4.799375 3.85664063 5.46875 4.39453125 C7 6 7 6 7 9 C6.01 8.67 5.02 8.34 4 8 C1.85744207 8.38932856 1.85744207 8.38932856 0 9 C0 6 0 3 0 0 Z " fill="#6CAEF0" transform="translate(196,198)"/>
<path d="M0 0 C3.25543229 0.34879632 4.01873107 1.02133261 6.25 3.5625 C6.8275 4.366875 7.405 5.17125 8 6 C6.68 6 5.36 6 4 6 C2.65835921 6.2981424 1.32148827 6.62243192 0 7 C0 4.66666667 0 2.33333333 0 0 Z " fill="#6DB2F3" transform="translate(188,192)"/>
<path d="M0 0 C0.33 0.66 0.66 1.32 1 2 C1.66 2.33 2.32 2.66 3 3 C1.875 5.5 1.875 5.5 0 8 C-3.1875 8.3125 -3.1875 8.3125 -6 8 C-4.768606 4.30581799 -2.79208646 2.64890254 0 0 Z " fill="#36106D" transform="translate(306,119)"/>
<path d="M0 0 C1 3 1 3 1 5 C0.34 5 -0.32 5 -1 5 C-1 5.66 -1 6.32 -1 7 C-1.598125 7.103125 -2.19625 7.20625 -2.8125 7.3125 C-5.28243264 8.08876455 -6.32251235 9.07088921 -8 11 C-8.66 10.67 -9.32 10.34 -10 10 C-6.7 6.7 -3.4 3.4 0 0 Z " fill="#81C6FC" transform="translate(134,176)"/>
<path d="M0 0 C0 3 0 3 -2 6 C-2 6.66 -2 7.32 -2 8 C-2.66 8 -3.32 8 -4 8 C-4 8.66 -4 9.32 -4 10 C-5.65 10 -7.3 10 -9 10 C-8.06409496 8.8944811 -7.12620142 7.79064547 -6.1875 6.6875 C-5.66542969 6.07261719 -5.14335938 5.45773438 -4.60546875 4.82421875 C-3.12827531 3.14575321 -1.59960869 1.56117966 0 0 Z " fill="#80C6FB" transform="translate(121,189)"/>
<path d="M0 0 C0.66 0.33 1.32 0.66 2 1 C2.17835515 5.54805635 1.99785435 8.8794254 0 13 C-0.66 12.67 -1.32 12.34 -2 12 C-1.835 11.401875 -1.67 10.80375 -1.5 10.1875 C-0.8885876 7.88655664 -0.8885876 7.88655664 -1 5 C-0.68911632 3.32900023 -0.35919668 1.66128463 0 0 Z " fill="#CBDEEE" transform="translate(307,106)"/>
<path d="M0 0 C0 3.32058331 -0.43061972 5.08543662 -2 8 C-4.625 9.3125 -4.625 9.3125 -7 10 C-7.33 9.01 -7.66 8.02 -8 7 C-5.36 4.69 -2.72 2.38 0 0 Z " fill="#C8F2F7" transform="translate(214,292)"/>
<path d="M0 0 C1.65 0.33 3.3 0.66 5 1 C3.02 3.31 1.04 5.62 -1 8 C-2.32 7.67 -3.64 7.34 -5 7 C-3.68 6.67 -2.36 6.34 -1 6 C-0.67 4.02 -0.34 2.04 0 0 Z " fill="#69A4E8" transform="translate(225,197)"/>
<path d="M0 0 C2.375 0.25 2.375 0.25 5 1 C6.3125 3.0625 6.3125 3.0625 7 5 C4.6875 5.625 4.6875 5.625 2 6 C1.01 5.34 0.02 4.68 -1 4 C-0.34 3.34 0.32 2.68 1 2 C0.67 1.34 0.34 0.68 0 0 Z " fill="#78C3FB" transform="translate(210,178)"/>
<path d="M0 0 C2.56687367 3.8503105 1.83288724 5.58569763 1 10 C-1.52259061 8.02579865 -1.9929808 7.03254358 -2.6875 3.8125 C-2.790625 2.884375 -2.89375 1.95625 -3 1 C-2.01 0.67 -1.02 0.34 0 0 Z " fill="#CFEEF1" transform="translate(323,99)"/>
<path d="M0 0 C1.98 0.66 3.96 1.32 6 2 C6 2.66 6 3.32 6 4 C6.66 4.33 7.32 4.66 8 5 C7.67 6.32 7.34 7.64 7 9 C5.82737096 7.88121617 4.66204862 6.75476949 3.5 5.625 C2.8503125 4.99851563 2.200625 4.37203125 1.53125 3.7265625 C0 2 0 2 0 0 Z " fill="#6BA7EA" transform="translate(202,184)"/>
<path d="M0 0 C5.28 0.33 10.56 0.66 16 1 C16 1.33 16 1.66 16 2 C12.37 2 8.74 2 5 2 C4.67 2.66 4.34 3.32 4 4 C3.67 3.34 3.34 2.68 3 2 C2.01 1.34 1.02 0.68 0 0 Z " fill="#3B1C73" transform="translate(247,177)"/>
<path d="M0 0 C0.33 1.32 0.66 2.64 1 4 C-0.65 5.32 -2.3 6.64 -4 8 C-4.33 6.35 -4.66 4.7 -5 3 C-3.68 3 -2.36 3 -1 3 C-0.67 2.01 -0.34 1.02 0 0 Z " fill="#321273" transform="translate(238,205)"/>
<path d="M0 0 C5.75 1.875 5.75 1.875 8 3 C7.67 3.99 7.34 4.98 7 6 C4.0625 5.25 4.0625 5.25 1 4 C0.125 1.875 0.125 1.875 0 0 Z " fill="#7DC2F9" transform="translate(192,163)"/>
<path d="M0 0 C2.80435411 -0.05632424 5.35146678 0.04185298 8.125 0.3125 C9.25615234 0.4043457 9.25615234 0.4043457 10.41015625 0.49804688 C12.27463438 0.6514533 14.13752498 0.82393459 16 1 C16 1.33 16 1.66 16 2 C10.06 2.33 4.12 2.66 -2 3 C-1.34 2.01 -0.68 1.02 0 0 Z " fill="#C6F0FD" transform="translate(162,157)"/>
<path d="M0 0 C0.66 0.33 1.32 0.66 2 1 C2.4140625 3.50390625 2.4140625 3.50390625 2.625 6.5625 C2.69976562 7.57441406 2.77453125 8.58632812 2.8515625 9.62890625 C2.92503906 10.80259766 2.92503906 10.80259766 3 12 C0.37482727 9.75590073 -0.42089541 8.30528247 -0.75 4.875 C-0.8325 3.59625 -0.915 2.3175 -1 1 C-0.67 0.67 -0.34 0.34 0 0 Z " fill="#270460" transform="translate(274,106)"/>
<path d="M0 0 C3.057952 1.73559438 5.63379989 3.38472619 8 6 C7.67 6.66 7.34 7.32 7 8 C1.21538462 4.55384615 1.21538462 4.55384615 0.125 1.75 C0.08375 1.1725 0.0425 0.595 0 0 Z " fill="#D3E4F5" transform="translate(299,96)"/>
<path d="M0 0 C2.64 0.66 5.28 1.32 8 2 C6.3125 3.5625 6.3125 3.5625 4 5 C1.25 4.6875 1.25 4.6875 -1 4 C-0.67 2.68 -0.34 1.36 0 0 Z " fill="#35116B" transform="translate(298,82)"/>
<path d="M0 0 C2 2 2 2 2 5 C0.35 5.66 -1.3 6.32 -3 7 C-3.33 6.01 -3.66 5.02 -4 4 C-2.68 2.68 -1.36 1.36 0 0 Z " fill="#6FB2F1" transform="translate(210,176)"/>
<path d="M0 0 C0 1.65 0 3.3 0 5 C-1.32 5 -2.64 5 -4 5 C-4.33 5.66 -4.66 6.32 -5 7 C-5.66 6.34 -6.32 5.68 -7 5 C-1.125 0 -1.125 0 0 0 Z " fill="#C8D8EB" transform="translate(315,130)"/>
<path d="M0 0 C2.3431213 0.25561323 4.67843403 0.59270772 7 1 C7.33 1.66 7.66 2.32 8 3 C5.03 3 2.06 3 -1 3 C-0.67 2.01 -0.34 1.02 0 0 Z " fill="#CCECF0" transform="translate(289,124)"/>
<path d="M0 0 C0.33 0.66 0.66 1.32 1 2 C1.99 2.33 2.98 2.66 4 3 C3.01 4.98 2.02 6.96 1 9 C0.34 8.67 -0.32 8.34 -1 8 C-0.4740625 7.13375 -0.4740625 7.13375 0.0625 6.25 C1.14917407 3.64198224 0.93065133 2.60582371 0 0 Z " fill="#28015E" transform="translate(307,118)"/>
<path d="M0 0 C0.99 0 1.98 0 3 0 C3 1.65 3 3.3 3 5 C2.34 5 1.68 5 1 5 C0.67 5.99 0.34 6.98 0 8 C0 5.36 0 2.72 0 0 Z " fill="#BCCCDD" transform="translate(276,107)"/>
</svg>
